<svg xmlns="http://www.w3.org/2000/svg" xmlns:xlink="http://www.w3.org/1999/xlink" viewBox="0 0 350 70"><defs><style>.cls-1{isolation:isolate;}.cls-2{font-size:41.51px;font-family:Montserrat-Bold, Montserrat Bold;font-weight:700;}.cls-2,.cls-4{fill:#2b68cf;}.cls-3{letter-spacing:-0.03em;}.cls-4{font-size:11.63px;font-family:Montserrat-Medium, Montserrat Medium;font-weight:500;letter-spacing:0.4em;}.cls-5{letter-spacing:0.4em;}.cls-6{letter-spacing:0.39em;}.cls-7{letter-spacing:0.42em;}.cls-8{letter-spacing:0.4em;}.cls-9{letter-spacing:0.38em;}.cls-10{fill:url(#linear-gradient);}.cls-11{fill:url(#White_Black);}.cls-12{fill:url(#linear-gradient-2);}.cls-13,.cls-14{mix-blend-mode:multiply;}.cls-13{fill:url(#linear-gradient-3);}.cls-14{fill:url(#linear-gradient-4);}</style><linearGradient id="linear-gradient" x1="38.33" y1="38.41" x2="15.16" y2="76.5" gradientUnits="userSpaceOnUse"><stop offset="0" stop-color="#2138dd"/><stop offset="0.1" stop-color="#2c4fdd"/><stop offset="0.29" stop-color="#3f77dd"/><stop offset="0.48" stop-color="#4e97dd"/><stop offset="0.67" stop-color="#58aedd"/><stop offset="0.84" stop-color="#5fbbdd"/><stop offset="1" stop-color="#61c0dd"/></linearGradient><linearGradient id="White_Black" x1="58.49" y1="18.04" x2="32.43" y2="51.33" gradientUnits="userSpaceOnUse"><stop offset="0" stop-color="#fff"/><stop offset="1"/></linearGradient><linearGradient id="linear-gradient-2" x1="-307.12" y1="56.09" x2="-275.61" y2="12.12" gradientTransform="translate(-226.4 48.4) rotate(-179.4)" xlink:href="#linear-gradient"/><linearGradient id="linear-gradient-3" x1="75.19" y1="-6.58" x2="51.88" y2="31.75" gradientUnits="userSpaceOnUse"><stop offset="0" stop-color="#61c0dd"/><stop offset="1" stop-color="#fff" stop-opacity="0"/></linearGradient><linearGradient id="linear-gradient-4" x1="8.57" y1="73.94" x2="39.77" y2="30.38" gradientUnits="userSpaceOnUse"><stop offset="0" stop-color="#61c0dd"/><stop offset="1" stop-color="#fff" stop-opacity="0"/></linearGradient></defs><title>Asset 22</title><g class="cls-1"><g id="Layer_2" data-name="Layer 2"><g id="logo"><text class="cls-2" transform="matrix(0.96, 0, -0.01, 1, 113.62, 42.3)"><tspan xml:space="preserve">AI  E</tspan><tspan class="cls-3" x="73.4" y="0">X</tspan><tspan x="95.9" y="0">CHANGE</tspan></text><text class="cls-4" transform="matrix(0.93, 0, -0.01, 1, 125.1, 59.48)">MEDI<tspan class="cls-5" x="44.2" y="0">C</tspan><tspan x="55.7" y="0">AL AI </tspan><tspan class="cls-6" x="111" y="0">M</tspan><tspan x="124.9" y="0">ARK</tspan><tspan class="cls-7" x="158.6" y="0">E</tspan><tspan class="cls-8" x="169.1" y="0">TPL</tspan><tspan class="cls-9" x="200.5" y="0">A</tspan><tspan class="cls-8" x="212.1" y="0">CE</tspan></text><polygon class="cls-10" points="47.9 46.7 40.3 53.8 22.9 70 4.5 70 39 38.8 47.9 46.7"/><path class="cls-11" d="M89.6,66.3H70.5L60.2,56.7H39.3l7.4-6.6h6.4L45.3,43l-8.9-7.9h0a.2.2,0,0,0,.2-.2l-1.1-.8-3.1-2.8L1.5,2.8H20.6l10.1,9.6H51.5L44,19.2H37.6l7.6,7.2,8.7,7.9-.2.2a3.5,3.5,0,0,1,1.2.7L58,38Z"/><polygon class="cls-12" points="45.8 25.4 71.4 2.2 89.8 2.3 54.5 33.3 45.8 25.4"/><polygon class="cls-13" points="86.1 0.1 50.8 31.1 42.1 23.2 67.7 0 86.1 0.1"/><polygon class="cls-14" points="43.5 43.9 18.4 67.2 0 67.2 34.5 36 43.5 43.9"/></g></g></g></svg>