<?xml version="1.0" encoding="utf-8"?>
<!-- Generator: Adobe Illustrator 27.6.1, SVG Export Plug-In . SVG Version: 6.00 Build 0)  -->
<svg version="1.1" id="Layer_1" xmlns="http://www.w3.org/2000/svg" xmlns:xlink="http://www.w3.org/1999/xlink" x="0px" y="0px"
	 viewBox="0 0 800 700" style="enable-background:new 0 0 800 700;" xml:space="preserve">
<style type="text/css">
	.st0{fill:url(#SVGID_1_);}
	.st1{fill:url(#SVGID_00000110469449023446541350000016399254126723663021_);}
	.st2{fill:url(#SVGID_00000182513227104421567570000016993188300329613447_);}
	.st3{fill:url(#SVGID_00000006706382826037989230000005612394057877270430_);}
	.st4{fill:url(#SVGID_00000032609245306913223080000014618503582235558025_);}
	.st5{fill:url(#SVGID_00000124163474809589731150000001182491471573180841_);}
	.st6{fill:url(#SVGID_00000147911369717893275910000000423502758559724689_);}
	.st7{fill:url(#SVGID_00000084517918966286693100000016556990986670773166_);}
	.st8{fill:url(#SVGID_00000158708574738236796150000016876251357217932207_);}
	.st9{fill:url(#SVGID_00000145031095806407968970000018204404377511709363_);}
	.st10{fill:url(#SVGID_00000112611994735646250480000010290283271976433317_);}
	.st11{fill:url(#SVGID_00000045601095080062229370000008813509203989388678_);}
	.st12{fill:url(#SVGID_00000121987703038085631370000017434344000882317479_);}
	.st13{fill:url(#SVGID_00000025420313890230575160000015962133677109136826_);}
	.st14{fill:url(#SVGID_00000118374310708652152740000010518412037317790348_);}
	.st15{fill:url(#SVGID_00000178888262724980750600000010159701970823371193_);}
	.st16{fill:url(#SVGID_00000088820961924471202830000017710045643885865911_);}
	.st17{fill:url(#SVGID_00000013905963418433139810000009170297704666056346_);}
	.st18{fill:url(#SVGID_00000070827491639584402510000018255745649688531092_);}
	.st19{fill:url(#SVGID_00000080918154209580708940000003961326335094908598_);}
	.st20{fill:url(#SVGID_00000080925217068521958400000000519576840067850407_);}
	.st21{fill:url(#SVGID_00000137125229330895099540000006287328796462764422_);}
	.st22{fill:url(#SVGID_00000018940221267031200110000015677884121136714386_);}
	.st23{fill:url(#SVGID_00000129168525698766835030000009369991200063584677_);}
	.st24{fill:url(#SVGID_00000047760418946806797790000010591682324314246019_);}
	.st25{fill:url(#SVGID_00000007430004892413397160000005694112839785188791_);}
	.st26{fill:#FFFFFF;}
	.st27{fill:url(#SVGID_00000086655136338857435500000003223476236133118868_);}
	.st28{fill:url(#SVGID_00000165924925980214520280000004916876522369209730_);}
	.st29{fill:url(#SVGID_00000178169530197950980910000015913855359287974803_);}
	.st30{fill:url(#SVGID_00000051354010545909554950000008066525774241698460_);}
	.st31{fill:url(#SVGID_00000062162877593047369990000014716669864428895624_);}
	.st32{fill:url(#SVGID_00000079452907502770559730000006843300245500417420_);}
	.st33{fill:url(#SVGID_00000031184860779233100960000008965119335302356375_);}
	.st34{fill:url(#SVGID_00000101063702932591284710000013890951274032726963_);}
	.st35{fill:url(#SVGID_00000015348820285026698580000010647233397399846035_);}
	.st36{fill:url(#SVGID_00000099623014204605908190000012594797860517222804_);}
	.st37{fill:url(#SVGID_00000129196140881373541650000010947956236742800279_);}
	.st38{fill:url(#SVGID_00000016762532069021511260000002708111300278860677_);}
	.st39{fill:url(#SVGID_00000100342623736773361280000003202365233316643508_);}
	.st40{fill:url(#SVGID_00000046301738550975706870000007316758062227533982_);}
	.st41{fill:url(#SVGID_00000164493882884621304340000008181912522432415131_);}
	.st42{fill:url(#SVGID_00000136394813754799278070000006823308746781334702_);}
	.st43{fill:url(#SVGID_00000181089616199309541190000014097619273951524272_);}
	.st44{fill:url(#SVGID_00000177479251923485971270000016586798605394535297_);}
	.st45{fill:url(#SVGID_00000130626866450988187960000008255489151644408458_);}
	.st46{fill:url(#SVGID_00000164471843306170676040000000441980388950065035_);}
	.st47{fill:url(#SVGID_00000044856075528754051450000013043694769427358902_);}
	.st48{fill:url(#SVGID_00000016060807121517744370000014192775196697861790_);}
	.st49{fill:url(#SVGID_00000129916542069418808520000004022836540984851589_);}
	.st50{fill:url(#SVGID_00000094591179322036046090000005157060295111080626_);}
</style>
<g>
	<linearGradient id="SVGID_1_" gradientUnits="userSpaceOnUse" x1="247.3658" y1="302.6353" x2="244.483" y2="389.6007">
		<stop  offset="0" style="stop-color:#7149C6"/>
		<stop  offset="1" style="stop-color:#FC2947"/>
	</linearGradient>
	<path class="st0" d="M288.19,310.43c-0.66-0.7-1.34-1.37-2.04-2.01c-0.05-0.05-0.1-0.09-0.15-0.14c-5.95-5.34-13.5-8.41-21.59-8.69
		c-4.72-0.16-9.32,0.64-13.59,2.31c-0.01,0-0.02,0.01-0.03,0.01c-1.16,0.45-2.29,0.97-3.39,1.55c-12.76-7.83-29.7-6.58-41.16,4.12
		c-11.47,10.7-13.9,27.51-6.96,40.79c-0.07,0.12-0.15,0.24-0.22,0.37c-0.09,0.15-0.19,0.31-0.28,0.46c-0.4,0.69-0.77,1.4-1.11,2.12
		c-0.1,0.21-0.21,0.43-0.31,0.64c-0.32,0.7-0.62,1.42-0.9,2.14c-0.08,0.21-0.16,0.43-0.23,0.65c-0.27,0.75-0.52,1.51-0.73,2.27
		c-0.04,0.13-0.07,0.27-0.1,0.4c-0.2,0.77-0.38,1.54-0.53,2.31c-0.02,0.1-0.04,0.2-0.06,0.3c-0.16,0.87-0.28,1.74-0.37,2.62
		c-0.01,0.09-0.02,0.17-0.03,0.26c-0.09,0.92-0.14,1.83-0.16,2.75c0,0.01,0,0.01,0,0.02c-0.11,6.63,1.69,13.29,5.43,19.08
		c0.04,0.06,0.07,0.11,0.11,0.16c0.5,0.76,1.03,1.51,1.59,2.23c0.07,0.09,0.14,0.18,0.22,0.27c0.57,0.72,1.17,1.43,1.81,2.12
		c6.72,7.2,15.84,10.84,24.98,10.84c5.42,0,10.85-1.29,15.8-3.87c4.98,3.07,10.7,4.83,16.71,5.03c0.41,0.01,0.81,0.02,1.21,0.02
		c8.67,0,16.89-3.23,23.27-9.18c6.67-6.22,10.52-14.67,10.83-23.78c0.21-6-1.14-11.82-3.86-17c3.07-4.98,4.82-10.69,5.03-16.7
		C297.66,325.79,294.41,317.1,288.19,310.43z M249.94,313.5l3.55,3.8l-7.21,6.73l-6.34-6.79l4.22-3.94
		c0.94-0.88,1.94-1.65,2.97-2.38C248.11,311.71,249.06,312.56,249.94,313.5z M278.05,358.09l-27.53-29.51l7.21-6.73l24.74,26.52
		c0.88,0.94,1.65,1.94,2.38,2.98c-0.8,0.98-1.64,1.93-2.58,2.8L278.05,358.09z M247.4,386.68c-0.95,0.88-1.95,1.66-2.98,2.38
		c-0.98-0.8-1.93-1.64-2.8-2.58l-3.55-3.8l29.09-27.14l6.34,6.79L247.4,386.68z M213.52,341.89l27.53,29.51l-7.21,6.73l-24.74-26.52
		c-0.88-0.94-1.66-1.95-2.38-2.98c0.79-0.97,1.64-1.92,2.58-2.8L213.52,341.89z M235.39,321.48l6.34,6.79l-17.33,16.17l-6.34-6.79
		L235.39,321.48z M245.59,367.15l-16.95-18.17l17.33-16.17l16.95,18.17L245.59,367.15z M210.47,312.13
		c5.37-5.01,12.22-7.49,19.04-7.49c4.12,0,8.22,0.94,12,2.73c-0.54,0.45-1.07,0.9-1.59,1.39l-30.64,28.59l0,0l-4.22,3.94
		c-0.52,0.49-1.02,0.99-1.5,1.5C199.49,332.42,201.85,320.17,210.47,312.13z M207.93,385.31c-0.61-0.65-1.17-1.33-1.71-2.03
		c-0.21-0.28-0.4-0.57-0.6-0.85c-0.3-0.42-0.59-0.84-0.86-1.26c-0.23-0.37-0.45-0.75-0.66-1.13c-0.2-0.35-0.39-0.7-0.58-1.06
		c-0.22-0.43-0.43-0.87-0.63-1.31c-0.14-0.31-0.27-0.62-0.4-0.94c-0.19-0.48-0.38-0.96-0.55-1.45c-0.09-0.27-0.17-0.55-0.26-0.83
		c-0.16-0.53-0.32-1.06-0.45-1.59c-0.05-0.22-0.09-0.43-0.13-0.65c-0.38-1.76-0.59-3.56-0.63-5.36c-0.01-0.42-0.03-0.85-0.02-1.27
		c0.01-0.37,0.04-0.73,0.06-1.1c0.03-0.5,0.06-0.99,0.12-1.49c0.04-0.32,0.09-0.64,0.14-0.97c0.08-0.54,0.18-1.08,0.29-1.62
		c0.06-0.28,0.13-0.56,0.19-0.85c0.14-0.58,0.3-1.16,0.48-1.73c0.08-0.24,0.15-0.48,0.23-0.72c0.21-0.62,0.45-1.23,0.71-1.83
		c0.08-0.19,0.15-0.38,0.24-0.57c0.07-0.15,0.15-0.3,0.23-0.45c0.45,0.54,0.91,1.08,1.39,1.6l32.53,34.87
		c0.49,0.52,0.99,1.02,1.5,1.5C228.22,396.28,215.97,393.93,207.93,385.31z M289.96,368.39c-0.26,7.46-3.41,14.36-8.86,19.45
		c-5.46,5.09-12.56,7.74-20.02,7.49c-3.9-0.14-7.64-1.08-11.05-2.71c0.55-0.45,1.09-0.92,1.62-1.41l34.87-32.53
		c0.53-0.49,1.03-1,1.52-1.52C289.42,360.7,290.1,364.49,289.96,368.39z M287.02,344.13l-32.53-34.87c-0.49-0.53-1-1.02-1.51-1.51
		c0.09-0.03,0.17-0.08,0.26-0.11c0.33-0.13,0.66-0.23,0.99-0.34c0.47-0.16,0.95-0.32,1.43-0.45c0.38-0.11,0.77-0.19,1.15-0.28
		c0.44-0.1,0.87-0.2,1.31-0.28c0.42-0.08,0.85-0.14,1.27-0.2c0.4-0.05,0.8-0.1,1.21-0.14c0.47-0.04,0.94-0.08,1.41-0.1
		c0.32-0.01,0.64-0.01,0.96-0.01c0.57,0,1.13-0.01,1.7,0.02c0.04,0,0.07,0.01,0.11,0.01c3.07,0.18,6.11,0.85,8.98,2.02
		c0.03,0.01,0.07,0.03,0.1,0.04c0.66,0.27,1.31,0.57,1.95,0.89c0.12,0.06,0.24,0.12,0.36,0.19c0.57,0.3,1.13,0.61,1.68,0.95
		c0.21,0.13,0.41,0.27,0.62,0.4c0.47,0.3,0.93,0.61,1.38,0.95c0.33,0.25,0.65,0.51,0.97,0.77c0.33,0.26,0.66,0.52,0.97,0.8
		c0.64,0.57,1.26,1.17,1.86,1.81c0.64,0.68,1.23,1.39,1.79,2.12c3.92,5.12,5.92,11.38,5.7,17.9c-0.14,3.9-1.08,7.63-2.71,11.05
		C287.97,345.2,287.51,344.65,287.02,344.13z"/>
	<g>
		<path d="M330.28,317.46h8.08l12.66,38.85h-7.29l-5.92-20.67c-1.23-4.11-2.38-8.54-3.52-12.81h-0.24c-1.07,4.3-2.21,8.7-3.45,12.81
			l-5.96,20.67h-7.03L330.28,317.46z M325.1,340.38h18.3v5.41h-18.3V340.38z"/>
		<path d="M354.44,318.15c0-2.31,1.81-3.87,4.23-3.87c2.42,0,4.23,1.57,4.23,3.87c0,2.26-1.81,3.87-4.23,3.87
			C356.25,322.03,354.44,320.41,354.44,318.15z M355.23,327.13h6.84v29.18h-6.84V327.13z"/>
		<path d="M371.38,317.46h23.38v5.8h-16.49v9.96h13.97v5.8h-13.97v11.5h17.08v5.8h-23.97V317.46z"/>
		<path d="M425.83,341.75c0-9.72,6.87-15.33,14.64-15.33c3.71,0,6.41,1.42,8.53,3.28l-3.33,4.44c-1.54-1.35-3.02-2.14-4.85-2.14
			c-4.7,0-7.96,3.9-7.96,9.74c0,5.84,3.21,9.69,7.75,9.69c2.28,0,4.37-1.12,6.04-2.52l2.78,4.51c-2.73,2.42-6.2,3.59-9.53,3.59
			C431.94,357.03,425.83,351.42,425.83,341.75z"/>
		<path d="M455.2,314.35h6.84v10.86l-0.29,5.63c2.45-2.3,5.35-4.42,9.34-4.42c6.25,0,8.98,4.23,8.98,11.59v18.3h-6.84V338.9
			c0-4.8-1.38-6.6-4.54-6.6c-2.57,0-4.25,1.26-6.65,3.64v20.39h-6.84V314.35z"/>
		<path d="M486.78,348.47c0-6.25,5.18-9.5,17.15-10.79c-0.09-3.14-1.35-5.75-5.3-5.75c-2.9,0-5.63,1.31-8.2,2.88l-2.52-4.56
			c3.21-2.02,7.34-3.82,11.97-3.82c7.29,0,10.88,4.49,10.88,12.62v17.27h-5.61l-0.52-3.23h-0.19c-2.61,2.23-5.61,3.94-9.05,3.94
			C490.29,357.03,486.78,353.56,486.78,348.47z M503.93,348.49v-6.56c-7.91,1-10.55,3.07-10.55,6.01c0,2.58,1.76,3.71,4.2,3.71
			C499.97,351.66,501.77,350.49,503.93,348.49z"/>
		<path d="M519,327.13h5.61l0.52,3.94h0.19c2.61-2.54,5.58-4.66,9.58-4.66c6.25,0,8.98,4.23,8.98,11.59v18.3h-6.84V338.9
			c0-4.8-1.38-6.6-4.54-6.6c-2.57,0-4.25,1.26-6.65,3.64v20.39H519V327.13z"/>
		<path d="M550.27,361.61c0-2.46,1.52-4.61,4.21-6.22v-0.24c-1.5-0.97-2.64-2.52-2.64-4.87c0-2.26,1.54-4.25,3.23-5.44v-0.24
			c-2-1.47-3.85-4.25-3.85-7.7c0-6.7,5.42-10.48,11.52-10.48c1.61,0,3.14,0.28,4.32,0.71h10.43v5.09h-5.32
			c0.95,1.09,1.66,2.9,1.66,4.89c0,6.49-4.92,9.96-11.1,9.96c-1.24,0-2.64-0.26-3.94-0.77c-0.88,0.75-1.42,1.49-1.42,2.79
			c0,1.64,1.19,2.64,4.73,2.64h5.19c6.97,0,10.68,2.16,10.68,7.2c0,5.75-6.04,10.29-15.56,10.29
			C555.45,369.21,550.27,366.72,550.27,361.61z M571.37,360.04c0-2.26-1.81-2.92-5.14-2.92h-4c-1.57,0-2.83-0.12-3.94-0.4
			c-1.57,1.19-2.26,2.49-2.26,3.85c0,2.66,2.85,4.21,7.44,4.21C568.16,364.77,571.37,362.56,571.37,360.04z M567.8,336.9
			c0-3.66-2.21-5.75-5.06-5.75c-2.85,0-5.06,2.07-5.06,5.75c0,3.71,2.26,5.87,5.06,5.87C565.55,342.77,567.8,340.61,567.8,336.9z"/>
		<path d="M580.28,341.75c0-9.48,6.58-15.33,13.45-15.33c7.89,0,12.05,5.7,12.05,13.85c0,1.31-0.14,2.61-0.3,3.33h-18.52
			c0.57,5.18,3.9,8.13,8.6,8.13c2.5,0,4.63-0.78,6.77-2.11l2.33,4.25c-2.78,1.88-6.3,3.16-10,3.16
			C586.6,357.03,580.28,351.37,580.28,341.75z M599.86,338.94c0-4.49-2-7.22-5.99-7.22c-3.4,0-6.39,2.54-6.98,7.22H599.86z"/>
		<g>
			
				<linearGradient id="SVGID_00000178892261613550298240000005290288717914401948_" gradientUnits="userSpaceOnUse" x1="322.8579" y1="392.0914" x2="322.8579" y2="372.9641">
				<stop  offset="0" style="stop-color:#7149C6"/>
				<stop  offset="1" style="stop-color:#FC2947"/>
			</linearGradient>
			<path style="fill:url(#SVGID_00000178892261613550298240000005290288717914401948_);" d="M317.61,367.19h3.71
				c4.26,0,6.78,2.3,6.78,6.9s-2.52,7.01-6.65,7.01h-3.84V367.19z M321.16,379.1c2.8,0,4.41-1.59,4.41-5.01
				c0-3.42-1.61-4.9-4.41-4.9h-1.08v9.91H321.16z"/>
			
				<linearGradient id="SVGID_00000096741918039416043670000003061036790903636363_" gradientUnits="userSpaceOnUse" x1="334.573" y1="392.0914" x2="334.573" y2="372.9641">
				<stop  offset="0" style="stop-color:#7149C6"/>
				<stop  offset="1" style="stop-color:#FC2947"/>
			</linearGradient>
			<path style="fill:url(#SVGID_00000096741918039416043670000003061036790903636363_);" d="M330.01,375.89
				c0-3.4,2.36-5.49,4.82-5.49c2.82,0,4.31,2.04,4.31,4.96c0,0.47-0.05,0.94-0.11,1.19h-6.63c0.2,1.85,1.4,2.91,3.08,2.91
				c0.89,0,1.66-0.28,2.42-0.76l0.83,1.52c-1,0.67-2.25,1.13-3.58,1.13C332.27,381.36,330.01,379.33,330.01,375.89z M337.02,374.88
				c0-1.61-0.71-2.59-2.14-2.59c-1.22,0-2.29,0.91-2.5,2.59H337.02z"/>
			
				<linearGradient id="SVGID_00000129888946112871450360000011746625408663213231_" gradientUnits="userSpaceOnUse" x1="348.9531" y1="392.0914" x2="348.9531" y2="372.9641">
				<stop  offset="0" style="stop-color:#7149C6"/>
				<stop  offset="1" style="stop-color:#FC2947"/>
			</linearGradient>
			<path style="fill:url(#SVGID_00000129888946112871450360000011746625408663213231_);" d="M341.48,370.65h2.01l0.19,1.42h0.07
				c0.88-0.92,1.9-1.68,3.21-1.68c1.53,0,2.4,0.7,2.88,1.87c1-1.06,2.03-1.87,3.36-1.87c2.2,0,3.22,1.51,3.22,4.15v6.55h-2.45v-6.24
				c0-1.72-0.51-2.36-1.61-2.36c-0.66,0-1.38,0.43-2.19,1.3v7.3h-2.45v-6.24c0-1.72-0.51-2.36-1.61-2.36c-0.65,0-1.38,0.43-2.19,1.3
				v7.3h-2.45V370.65z"/>
			
				<linearGradient id="SVGID_00000125602351809072631640000007127119829920828550_" gradientUnits="userSpaceOnUse" x1="363.6978" y1="392.0914" x2="363.6978" y2="372.9641">
				<stop  offset="0" style="stop-color:#7149C6"/>
				<stop  offset="1" style="stop-color:#FC2947"/>
			</linearGradient>
			<path style="fill:url(#SVGID_00000125602351809072631640000007127119829920828550_);" d="M358.73,375.89
				c0-3.48,2.36-5.49,4.97-5.49c2.6,0,4.97,2.01,4.97,5.49c0,3.46-2.36,5.47-4.97,5.47C361.09,381.36,358.73,379.35,358.73,375.89z
				 M366.15,375.89c0-2.09-0.92-3.49-2.45-3.49c-1.53,0-2.45,1.4-2.45,3.49c0,2.09,0.92,3.47,2.45,3.47
				C365.23,379.36,366.15,377.98,366.15,375.89z"/>
			
				<linearGradient id="SVGID_00000168796507479714530630000017988923917238630277_" gradientUnits="userSpaceOnUse" x1="374.6335" y1="392.0914" x2="374.6335" y2="372.9641">
				<stop  offset="0" style="stop-color:#7149C6"/>
				<stop  offset="1" style="stop-color:#FC2947"/>
			</linearGradient>
			<path style="fill:url(#SVGID_00000168796507479714530630000017988923917238630277_);" d="M370.41,375.89
				c0-3.48,2.46-5.49,5.24-5.49c1.33,0,2.3,0.51,3.05,1.17l-1.19,1.59c-0.55-0.49-1.08-0.77-1.74-0.77c-1.68,0-2.85,1.4-2.85,3.49
				c0,2.09,1.15,3.47,2.77,3.47c0.82,0,1.57-0.4,2.16-0.9l1,1.62c-0.98,0.87-2.22,1.28-3.41,1.28
				C372.6,381.36,370.41,379.35,370.41,375.89z"/>
			
				<linearGradient id="SVGID_00000174571128330734015580000017953308438569203600_" gradientUnits="userSpaceOnUse" x1="384.1348" y1="392.0914" x2="384.1348" y2="372.9641">
				<stop  offset="0" style="stop-color:#7149C6"/>
				<stop  offset="1" style="stop-color:#FC2947"/>
			</linearGradient>
			<path style="fill:url(#SVGID_00000174571128330734015580000017953308438569203600_);" d="M380.93,370.65h2.01l0.19,1.86h0.07
				c0.74-1.36,1.85-2.12,2.97-2.12c0.53,0,0.87,0.07,1.18,0.21l-0.43,2.13c-0.37-0.1-0.64-0.17-1.07-0.17
				c-0.83,0-1.84,0.57-2.47,2.16v6.37h-2.45V370.65z"/>
			
				<linearGradient id="SVGID_00000085252746030033179990000014007908862289870256_" gradientUnits="userSpaceOnUse" x1="392.0449" y1="392.0914" x2="392.0449" y2="372.9641">
				<stop  offset="0" style="stop-color:#7149C6"/>
				<stop  offset="1" style="stop-color:#FC2947"/>
			</linearGradient>
			<path style="fill:url(#SVGID_00000085252746030033179990000014007908862289870256_);" d="M387.75,378.29
				c0-2.24,1.85-3.4,6.14-3.86c-0.03-1.12-0.49-2.06-1.9-2.06c-1.04,0-2.02,0.47-2.93,1.03l-0.9-1.63c1.15-0.72,2.63-1.37,4.29-1.37
				c2.61,0,3.9,1.61,3.9,4.52v6.18h-2.01l-0.19-1.16h-0.07c-0.94,0.8-2.01,1.41-3.24,1.41
				C389.01,381.36,387.75,380.11,387.75,378.29z M393.89,378.3v-2.35c-2.83,0.36-3.78,1.1-3.78,2.15c0,0.92,0.63,1.33,1.51,1.33
				C392.47,379.43,393.12,379.02,393.89,378.3z"/>
			
				<linearGradient id="SVGID_00000124119308922872513450000004758380480136612796_" gradientUnits="userSpaceOnUse" x1="401.2876" y1="392.0914" x2="401.2876" y2="372.9641">
				<stop  offset="0" style="stop-color:#7149C6"/>
				<stop  offset="1" style="stop-color:#FC2947"/>
			</linearGradient>
			<path style="fill:url(#SVGID_00000124119308922872513450000004758380480136612796_);" d="M399.31,377.58v-4.98h-1.49v-1.84
				l1.62-0.11l0.29-2.85h2.03v2.85h2.66v1.95h-2.66v4.97c0,1.23,0.48,1.83,1.48,1.83c0.36,0,0.78-0.12,1.09-0.24l0.42,1.8
				c-0.57,0.19-1.3,0.38-2.14,0.38C400.21,381.36,399.31,379.83,399.31,377.58z"/>
			
				<linearGradient id="SVGID_00000054988002712606183740000010551059001831946399_" gradientUnits="userSpaceOnUse" x1="407.8616" y1="392.0914" x2="407.8616" y2="372.9641">
				<stop  offset="0" style="stop-color:#7149C6"/>
				<stop  offset="1" style="stop-color:#FC2947"/>
			</linearGradient>
			<path style="fill:url(#SVGID_00000054988002712606183740000010551059001831946399_);" d="M406.35,367.44
				c0-0.83,0.65-1.39,1.51-1.39c0.87,0,1.51,0.56,1.51,1.39c0,0.81-0.65,1.39-1.51,1.39C406.99,368.83,406.35,368.25,406.35,367.44z
				 M406.63,370.65h2.45v10.45h-2.45V370.65z"/>
			
				<linearGradient id="SVGID_00000065768581175492374960000005937256313952734854_" gradientUnits="userSpaceOnUse" x1="415.4557" y1="392.0914" x2="415.4557" y2="372.9641">
				<stop  offset="0" style="stop-color:#7149C6"/>
				<stop  offset="1" style="stop-color:#FC2947"/>
			</linearGradient>
			<path style="fill:url(#SVGID_00000065768581175492374960000005937256313952734854_);" d="M411.38,379.79l4.93-7.19h-4.37v-1.95
				h7.44v1.31l-4.93,7.19h5.09v1.95h-8.16V379.79z"/>
			
				<linearGradient id="SVGID_00000160158429558330365780000014767024563715903393_" gradientUnits="userSpaceOnUse" x1="422.8596" y1="392.0914" x2="422.8596" y2="372.9641">
				<stop  offset="0" style="stop-color:#7149C6"/>
				<stop  offset="1" style="stop-color:#FC2947"/>
			</linearGradient>
			<path style="fill:url(#SVGID_00000160158429558330365780000014767024563715903393_);" d="M421.35,367.44
				c0-0.83,0.65-1.39,1.51-1.39c0.87,0,1.51,0.56,1.51,1.39c0,0.81-0.65,1.39-1.51,1.39C421.99,368.83,421.35,368.25,421.35,367.44z
				 M421.63,370.65h2.45v10.45h-2.45V370.65z"/>
			
				<linearGradient id="SVGID_00000143603076334258197000000012277564728682812822_" gradientUnits="userSpaceOnUse" x1="431.6541" y1="392.0914" x2="431.6541" y2="372.9641">
				<stop  offset="0" style="stop-color:#7149C6"/>
				<stop  offset="1" style="stop-color:#FC2947"/>
			</linearGradient>
			<path style="fill:url(#SVGID_00000143603076334258197000000012277564728682812822_);" d="M427.2,370.65h2.01l0.19,1.41h0.07
				c0.94-0.91,2-1.67,3.43-1.67c2.24,0,3.22,1.51,3.22,4.15v6.55h-2.45v-6.24c0-1.72-0.49-2.36-1.63-2.36
				c-0.92,0-1.52,0.45-2.38,1.3v7.3h-2.45V370.65z"/>
			
				<linearGradient id="SVGID_00000154385498354334450360000000205163759696882070_" gradientUnits="userSpaceOnUse" x1="443.3598" y1="392.0914" x2="443.3598" y2="372.9641">
				<stop  offset="0" style="stop-color:#7149C6"/>
				<stop  offset="1" style="stop-color:#FC2947"/>
			</linearGradient>
			<path style="fill:url(#SVGID_00000154385498354334450360000000205163759696882070_);" d="M438.4,383c0-0.88,0.54-1.65,1.51-2.23
				v-0.09c-0.54-0.35-0.95-0.9-0.95-1.74c0-0.81,0.55-1.52,1.16-1.95v-0.08c-0.72-0.53-1.38-1.52-1.38-2.76
				c0-2.4,1.94-3.75,4.13-3.75c0.58,0,1.12,0.1,1.55,0.26h3.73v1.82h-1.91c0.34,0.39,0.6,1.04,0.6,1.75c0,2.32-1.76,3.56-3.97,3.56
				c-0.44,0-0.94-0.09-1.41-0.28c-0.31,0.27-0.51,0.53-0.51,1c0,0.59,0.43,0.94,1.69,0.94h1.86c2.5,0,3.82,0.77,3.82,2.58
				c0,2.06-2.16,3.68-5.57,3.68C440.26,385.72,438.4,384.83,438.4,383z M445.95,382.44c0-0.81-0.65-1.05-1.84-1.05h-1.43
				c-0.56,0-1.01-0.04-1.41-0.14c-0.56,0.43-0.81,0.89-0.81,1.38c0,0.95,1.02,1.51,2.66,1.51
				C444.81,384.13,445.95,383.34,445.95,382.44z M444.68,374.15c0-1.31-0.79-2.06-1.81-2.06c-1.02,0-1.81,0.74-1.81,2.06
				c0,1.33,0.81,2.1,1.81,2.1C443.87,376.25,444.68,375.48,444.68,374.15z"/>
			
				<linearGradient id="SVGID_00000066490562255600395200000012664835134042565297_" gradientUnits="userSpaceOnUse" x1="460.7953" y1="392.0914" x2="460.7953" y2="372.9641">
				<stop  offset="0" style="stop-color:#7149C6"/>
				<stop  offset="1" style="stop-color:#FC2947"/>
			</linearGradient>
			<path style="fill:url(#SVGID_00000066490562255600395200000012664835134042565297_);" d="M454.65,367.19h2.79l2.46,6.8
				c0.31,0.89,0.59,1.82,0.89,2.73h0.08c0.31-0.91,0.57-1.84,0.88-2.73l2.41-6.8h2.79v13.91h-2.26v-6.36c0-1.28,0.19-3.14,0.31-4.42
				h-0.09l-1.12,3.23l-2.29,6.25h-1.46l-2.3-6.25l-1.11-3.23h-0.08c0.12,1.29,0.31,3.14,0.31,4.42v6.36h-2.22V367.19z"/>
			
				<linearGradient id="SVGID_00000031886890607846125130000000408860029211985292_" gradientUnits="userSpaceOnUse" x1="474.1575" y1="392.0914" x2="474.1575" y2="372.9641">
				<stop  offset="0" style="stop-color:#7149C6"/>
				<stop  offset="1" style="stop-color:#FC2947"/>
			</linearGradient>
			<path style="fill:url(#SVGID_00000031886890607846125130000000408860029211985292_);" d="M469.59,375.89
				c0-3.4,2.36-5.49,4.82-5.49c2.82,0,4.31,2.04,4.31,4.96c0,0.47-0.05,0.94-0.11,1.19h-6.63c0.2,1.85,1.4,2.91,3.08,2.91
				c0.89,0,1.66-0.28,2.42-0.76l0.83,1.52c-1,0.67-2.25,1.13-3.58,1.13C471.86,381.36,469.59,379.33,469.59,375.89z M476.6,374.88
				c0-1.61-0.72-2.59-2.14-2.59c-1.22,0-2.29,0.91-2.5,2.59H476.6z"/>
			
				<linearGradient id="SVGID_00000025418317923435049230000008341582953464625843_" gradientUnits="userSpaceOnUse" x1="485.1897" y1="392.0914" x2="485.1897" y2="372.9641">
				<stop  offset="0" style="stop-color:#7149C6"/>
				<stop  offset="1" style="stop-color:#FC2947"/>
			</linearGradient>
			<path style="fill:url(#SVGID_00000025418317923435049230000008341582953464625843_);" d="M480.43,375.89
				c0-3.4,2.14-5.49,4.42-5.49c1.18,0,1.93,0.44,2.74,1.15l-0.09-1.68v-3.79h2.45v15.02h-2.01l-0.19-1.13h-0.07
				c-0.77,0.77-1.85,1.39-2.97,1.39C482.12,381.36,480.43,379.33,480.43,375.89z M487.5,378.16v-4.87
				c-0.72-0.64-1.42-0.87-2.13-0.87c-1.33,0-2.43,1.26-2.43,3.44c0,2.27,0.87,3.47,2.37,3.47
				C486.13,379.33,486.81,378.97,487.5,378.16z"/>
			
				<linearGradient id="SVGID_00000052105743244968201050000010527052946021943471_" gradientUnits="userSpaceOnUse" x1="494.3018" y1="392.0914" x2="494.3018" y2="372.9641">
				<stop  offset="0" style="stop-color:#7149C6"/>
				<stop  offset="1" style="stop-color:#FC2947"/>
			</linearGradient>
			<path style="fill:url(#SVGID_00000052105743244968201050000010527052946021943471_);" d="M492.79,367.44
				c0-0.83,0.65-1.39,1.51-1.39c0.87,0,1.51,0.56,1.51,1.39c0,0.81-0.65,1.39-1.51,1.39C493.43,368.83,492.79,368.25,492.79,367.44z
				 M493.07,370.65h2.45v10.45h-2.45V370.65z"/>
			
				<linearGradient id="SVGID_00000058553141756925844570000003035502756063376537_" gradientUnits="userSpaceOnUse" x1="502.1766" y1="392.0914" x2="502.1766" y2="372.9641">
				<stop  offset="0" style="stop-color:#7149C6"/>
				<stop  offset="1" style="stop-color:#FC2947"/>
			</linearGradient>
			<path style="fill:url(#SVGID_00000058553141756925844570000003035502756063376537_);" d="M497.95,375.89
				c0-3.48,2.46-5.49,5.24-5.49c1.33,0,2.3,0.51,3.05,1.17l-1.19,1.59c-0.55-0.49-1.08-0.77-1.73-0.77c-1.69,0-2.85,1.4-2.85,3.49
				c0,2.09,1.15,3.47,2.77,3.47c0.82,0,1.57-0.4,2.16-0.9l1,1.62c-0.98,0.87-2.22,1.28-3.41,1.28
				C500.14,381.36,497.95,379.35,497.95,375.89z"/>
			
				<linearGradient id="SVGID_00000127044525555751764200000009211781883512178305_" gradientUnits="userSpaceOnUse" x1="511.9927" y1="392.0914" x2="511.9927" y2="372.9641">
				<stop  offset="0" style="stop-color:#7149C6"/>
				<stop  offset="1" style="stop-color:#FC2947"/>
			</linearGradient>
			<path style="fill:url(#SVGID_00000127044525555751764200000009211781883512178305_);" d="M507.7,378.29
				c0-2.24,1.85-3.4,6.14-3.86c-0.03-1.12-0.48-2.06-1.9-2.06c-1.04,0-2.02,0.47-2.93,1.03l-0.9-1.63c1.15-0.72,2.63-1.37,4.29-1.37
				c2.61,0,3.9,1.61,3.9,4.52v6.18h-2.01l-0.19-1.16h-0.07c-0.94,0.8-2.01,1.41-3.24,1.41C508.96,381.36,507.7,380.11,507.7,378.29z
				 M513.84,378.3v-2.35c-2.83,0.36-3.78,1.1-3.78,2.15c0,0.92,0.63,1.33,1.51,1.33C512.42,379.43,513.06,379.02,513.84,378.3z"/>
			
				<linearGradient id="SVGID_00000115516939230877511560000013125824799326652564_" gradientUnits="userSpaceOnUse" x1="521.0696" y1="392.0914" x2="521.0696" y2="372.9641">
				<stop  offset="0" style="stop-color:#7149C6"/>
				<stop  offset="1" style="stop-color:#FC2947"/>
			</linearGradient>
			<path style="fill:url(#SVGID_00000115516939230877511560000013125824799326652564_);" d="M519.24,378.41v-12.33h2.45v12.46
				c0,0.6,0.27,0.82,0.53,0.82c0.11,0,0.2,0,0.38-0.04l0.31,1.83c-0.3,0.12-0.71,0.21-1.29,0.21
				C519.87,381.36,519.24,380.23,519.24,378.41z"/>
			
				<linearGradient id="SVGID_00000018923070081230836810000010206032409004670354_" gradientUnits="userSpaceOnUse" x1="533.6378" y1="392.0914" x2="533.6378" y2="372.9641">
				<stop  offset="0" style="stop-color:#7149C6"/>
				<stop  offset="1" style="stop-color:#FC2947"/>
			</linearGradient>
			<path style="fill:url(#SVGID_00000018923070081230836810000010206032409004670354_);" d="M532.19,367.19h2.89l4.53,13.91h-2.61
				l-2.12-7.4c-0.44-1.47-0.85-3.06-1.26-4.58h-0.09c-0.38,1.54-0.79,3.11-1.23,4.58l-2.14,7.4h-2.52L532.19,367.19z M530.34,375.4
				h6.55v1.94h-6.55V375.4z"/>
			
				<linearGradient id="SVGID_00000028315614114633559030000011206530397235400888_" gradientUnits="userSpaceOnUse" x1="542.3612" y1="392.0914" x2="542.3612" y2="372.9641">
				<stop  offset="0" style="stop-color:#7149C6"/>
				<stop  offset="1" style="stop-color:#FC2947"/>
			</linearGradient>
			<path style="fill:url(#SVGID_00000028315614114633559030000011206530397235400888_);" d="M540.85,367.44
				c0-0.83,0.65-1.39,1.51-1.39s1.51,0.56,1.51,1.39c0,0.81-0.65,1.39-1.51,1.39S540.85,368.25,540.85,367.44z M541.13,370.65h2.45
				v10.45h-2.45V370.65z"/>
		</g>
		
			<linearGradient id="SVGID_00000118379978933090704010000012915121789991002798_" gradientUnits="userSpaceOnUse" x1="409.8758" y1="342.7572" x2="401.3305" y2="356.3157">
			<stop  offset="0" style="stop-color:#7149C6"/>
			<stop  offset="1" style="stop-color:#FC2947"/>
		</linearGradient>
		<polygon style="fill:url(#SVGID_00000118379978933090704010000012915121789991002798_);" points="406.96,343.15 410.55,348.07 
			404.52,356.31 397.31,356.31 		"/>
		
			<linearGradient id="SVGID_00000041998449863669465370000003746689808825716360_" gradientUnits="userSpaceOnUse" x1="424.449" y1="322.4064" x2="411.688" y2="343.9405">
			<stop  offset="0" style="stop-color:#7149C6"/>
			<stop  offset="1" style="stop-color:#FC2947"/>
		</linearGradient>
		<polygon style="fill:url(#SVGID_00000041998449863669465370000003746689808825716360_);" points="425.83,327.14 415.85,340.8 
			412.27,335.9 418.69,327.14 		"/>
		<polygon points="425.5,356.31 404.13,327.13 396.97,327.13 418.29,356.31 		"/>
	</g>
</g>
</svg>
